<?xml version="1.0" encoding="UTF-8" standalone="no"?>
<!-- Created with Inkscape (http://www.inkscape.org/) -->

<svg
   width="210"
   height="285"
   viewBox="0 0 55.562501 75.406258"
   version="1.1"
   id="svg5"
   xmlns="http://www.w3.org/2000/svg"
   xmlns:svg="http://www.w3.org/2000/svg">
  <defs
     id="defs2" />
  <g
     id="layer1">
    <path
       id="rect2662"
       style="fill:#ccb338;fill-opacity:1;stroke-width:0.265;stroke-dasharray:none"
       d="M 22.489585 1.3229167 L 22.489585 21.166668 L 1.3229167 21.166668 L 1.3229167 31.750002 L 1.3229167 42.333336 L 1.3229167 52.91667 L 11.906251 52.91667 L 22.489585 52.91667 L 33.072919 52.91667 L 33.120978 52.91667 L 33.120978 42.333336 L 33.072919 42.333336 L 33.072919 1.3229167 L 22.489585 1.3229167 z M 11.906251 31.750002 L 22.489585 31.750002 L 22.489585 42.333336 L 11.906251 42.333336 L 11.906251 31.750002 z " />
    <path
       id="rect10136"
       style="fill:#000000;fill-opacity:1;stroke-width:0.264999;stroke-dasharray:none"
       d="M 21.166668 0 L 21.166668 1.3229167 L 21.166668 19.843751 L 0 19.843751 L 0 21.166668 L 0 54.239587 L 1.3229167 54.239587 L 42.333336 54.239587 L 42.333336 62.177087 L 21.166668 62.177087 L 21.166668 63.500004 L 21.166668 74.083338 L 21.166668 75.406255 L 22.489585 75.406255 L 54.239587 75.406255 L 55.562503 75.406255 L 55.562503 74.083338 L 55.562503 41.010419 L 34.395835 41.010419 L 34.395835 33.072919 L 55.562503 33.072919 L 55.562503 31.750002 L 55.562503 19.843751 L 34.395835 19.843751 L 34.395835 0 L 21.166668 0 z M 22.489585 1.3229167 L 33.072919 1.3229167 L 33.072919 52.91667 L 1.3229167 52.91667 L 1.3229167 21.166668 L 22.489585 21.166668 L 22.489585 19.843751 L 22.489585 1.3229167 z M 34.395835 21.166668 L 54.239587 21.166668 L 54.239587 31.750002 L 34.395835 31.750002 L 34.395835 21.166668 z M 34.395835 42.333336 L 54.239587 42.333336 L 54.239587 74.083338 L 22.489585 74.083338 L 22.489585 63.500004 L 43.656253 63.500004 L 43.656253 62.177087 L 43.656253 52.91667 L 34.395835 52.91667 L 34.395835 42.333336 z " />
    <path
       id="rect10156"
       style="fill:#000000;fill-opacity:1;stroke-width:0.264999;stroke-dasharray:none"
       d="M 11.906251 31.750002 L 11.906251 33.072919 L 11.906251 41.010419 L 11.906251 42.333336 L 13.229167 42.333336 L 21.166668 42.333336 L 22.489585 42.333336 L 22.489585 41.010419 L 22.489585 31.750002 L 11.906251 31.750002 z M 13.229167 33.072919 L 21.166668 33.072919 L 21.166668 41.010419 L 13.229167 41.010419 L 13.229167 33.072919 z " />
    <rect
       style="fill:#b83a33;fill-opacity:1;stroke-width:0.248923;stroke-dasharray:none"
       id="rect10896"
       width="19.843754"
       height="10.583334"
       x="34.395832"
       y="21.166666" />
    <path
       id="rect10898"
       style="fill:#b83a33;fill-opacity:1;stroke-width:0.248923;stroke-dasharray:none"
       d="M 34.395835 42.333336 L 34.395835 52.91667 L 43.656253 52.91667 L 43.656253 63.500004 L 22.489585 63.500004 L 22.489585 74.083338 L 43.656253 74.083338 L 54.239587 74.083338 L 54.239587 63.500004 L 54.239587 42.333336 L 34.395835 42.333336 z " />
  </g>
</svg>
